<?xml version="1.0" encoding="UTF-8"?>
<svg width="482px" height="137px" viewBox="0 0 482 137" version="1.1" xmlns="http://www.w3.org/2000/svg" xmlns:xlink="http://www.w3.org/1999/xlink">
    <!-- Generator: Sketch 49.3 (51167) - http://www.bohemiancoding.com/sketch -->
    <title>Group</title>
    <desc>Created with Sketch.</desc>
    <defs></defs>
    <g id="Page-1" stroke="none" stroke-width="1" fill="none" fill-rule="evenodd">
        <g id="login" transform="translate(-271.000000, -175.000000)" fill-rule="nonzero">
            <g id="Group" transform="translate(270.000000, 175.000000)">
                <g id="g20" transform="translate(14.117200, 60.675869) scale(1, -1) translate(-14.117200, -60.675869) translate(0.783867, 42.675870)" fill="#1791D0">
                    <path d="M15.9999996,3.9999999 C16.8133329,3.9999999 17.4439996,4.06533323 17.8919996,4.19733323 C18.3373329,4.33199989 18.7466662,4.53733322 19.1093329,4.81999988 C19.4719995,5.10266654 19.8786662,5.49199986 20.3159995,5.98933318 C20.7573328,6.48799984 21.1919995,7.13466649 21.6213328,7.93066647 C22.0533328,8.72533312 22.4933328,9.72266642 22.9413328,10.9146664 L26.3239993,10.9146664 L23.7879994,1.03733331 L1.01999997,1.03733331 L1.36666663,2.67999993 C2.06666661,2.87866659 2.59999993,3.15199992 2.97199993,3.49999991 C3.34533325,3.85066657 3.66799991,4.34266656 3.93066657,4.98266654 C4.19866656,5.61999986 4.46399989,6.54533317 4.73066655,7.75733314 L9.25866644,28.2839993 C9.47199976,29.2626659 9.57999976,30.2333326 9.57999976,31.1959992 C9.57999976,31.8919992 9.41999976,32.4013325 9.09333311,32.7239992 C8.77333311,33.0506658 8.24533313,33.2586658 7.51466648,33.3613325 L7.8639998,35.0013325 L20.3799995,35.0013325 L20.0279995,33.3613325 C19.3359995,33.1613325 18.7986662,32.8866658 18.4253329,32.5386659 C18.0506662,32.1906659 17.7346662,31.6946659 17.4706662,31.0586659 C17.2013329,30.4199992 16.9359996,29.4946659 16.6719996,28.2839993 L11.2973331,3.9999999 L15.9999996,3.9999999 Z" id="path22"></path>
                </g>
                <g id="g24" transform="translate(43.662799, 64.826936) scale(1, -1) translate(-43.662799, -64.826936) translate(30.329466, 51.493603)" fill="#1791D0">
                    <path d="M17.3333329,15.9999996 C17.4493329,16.5293329 17.5439996,17.1226662 17.6173329,17.7773329 C17.6919996,18.4333329 17.7319996,19.0679995 17.7319996,19.6813328 C17.7319996,20.7759995 17.5213329,21.6079995 17.1106662,22.1679994 C16.6946662,22.7333328 16.0133329,23.0173328 15.069333,23.0173328 C13.5266663,23.0173328 12.1559997,22.2413328 10.9653331,20.6893328 C9.76933309,19.1386662 8.80533311,17.0506662 8.0759998,14.4319996 C7.34666648,11.809333 6.98133316,9.46399976 6.98133316,7.38933315 C6.98133316,6.17733318 7.15733315,5.27466653 7.51466648,4.67733322 C7.8719998,4.08266656 8.42533312,3.78266657 9.17199977,3.78266657 C10.2653331,3.78266657 11.381333,4.31733323 12.5186664,5.38799987 C13.6546663,6.45733317 14.573333,7.71466647 15.2666663,9.15599977 C15.9653329,10.5986664 16.5853329,12.5746664 17.1346662,15.0786663 L17.3333329,15.9999996 Z M21.0893328,23.8119994 L23.3306661,25.6039994 L26.1159993,25.206666 L22.2866661,7.86133314 C22.0853328,6.98399983 21.9399995,6.27733318 21.8479995,5.74666652 C21.7573328,5.2173332 21.7133328,4.77066655 21.7133328,4.40533322 C21.7133328,3.65999991 21.8919995,3.11733326 22.2586661,2.78799993 C22.6226661,2.45466661 23.2706661,2.24666661 24.1986661,2.16399995 L23.9253327,0.52133332 L14.373333,0.52133332 L15.7133329,5.62266653 L15.3906663,5.72266652 C14.2639996,4.26266656 13.2146663,3.12933326 12.2439997,2.32666661 C11.2759997,1.52266663 10.3186664,0.95333331 9.38399977,0.622666651 C8.44533312,0.290666659 7.36266648,0.12533333 6.13599985,0.12533333 C4.97466654,0.12533333 3.95466657,0.397333323 3.07733326,0.94533331 C2.19466661,1.49466663 1.49999996,2.35999994 0.985333309,3.54533324 C0.470666655,4.73066655 0.213333328,6.23466651 0.213333328,8.06266647 C0.213333328,9.80399975 0.41599999,11.561333 0.821333313,13.337333 C1.2293333,15.1106663 1.83333329,16.7666662 2.62799993,18.3026662 C3.42399991,19.8346662 4.42666656,21.1493328 5.63733319,22.2453328 C6.84933316,23.3399994 8.22399979,24.1733327 9.75599976,24.7453327 C11.2906664,25.318666 12.9626663,25.6039994 14.769333,25.6039994 C17.2426662,25.6039994 19.3493328,25.0053327 21.0893328,23.8119994 Z" id="path26"></path>
                </g>
                <g id="g28" transform="translate(72.139332, 64.972136) scale(1, -1) translate(-72.139332, -64.972136) translate(58.805999, 52.305470)" fill="#1791D0">
                    <path d="M25.3333327,0 L15.0079996,0 L18.1199995,13.537333 C18.5653329,15.4599996 18.8399995,16.7866662 18.9373329,17.5173329 C19.0373329,18.2466662 19.0893329,18.8199995 19.0893329,19.2359995 C19.0893329,19.9813328 18.9293329,20.5359995 18.6173329,20.9026661 C18.3026662,21.2666661 17.8466662,21.4479995 17.2479996,21.4479995 C16.7159996,21.4479995 16.1359996,21.2506661 15.5079996,20.8519995 C14.8759996,20.4546662 14.169333,19.8319995 13.3906663,18.9853329 C12.6119997,18.1399995 11.989333,17.2439996 11.5239997,16.2999996 C11.0599997,15.3519996 10.6866664,14.1759996 10.4053331,12.765333 L7.66799981,0 L0.527999987,0 L4.43199989,17.5666662 C4.51599989,17.9666662 4.63066655,18.5346662 4.77066655,19.2719995 C4.90799988,20.0106662 4.97866654,20.6279995 4.97866654,21.1266661 C4.97866654,21.8226661 4.78533321,22.2973328 4.39733322,22.5559994 C4.00666657,22.8133328 3.39733325,22.9759994 2.5666666,23.0413328 L2.93999993,24.6853327 L9.78133309,24.9573327 L12.3959997,24.9573327 L10.9786664,19.5826662 L11.2746664,19.4839995 C12.4186664,20.8933328 13.481333,22.0013328 14.461333,22.8053328 C15.4386663,23.6093327 16.4159996,24.1906661 17.3866662,24.5479994 C18.3546662,24.9039994 19.4279995,25.082666 20.6053328,25.082666 C22.3146661,25.082666 23.6586661,24.6053327 24.6386661,23.6519994 C25.6159994,22.6986661 26.1053327,21.3826661 26.1053327,19.7093328 C26.1053327,18.6279995 25.9373327,17.3439996 25.606666,15.8519996 L23.5666661,6.6426665 C23.4013327,5.88133319 23.2919994,5.29199987 23.2346661,4.87866654 C23.1706661,4.46399989 23.1413328,4.10666656 23.1413328,3.80666657 C23.1413328,3.06133326 23.3306661,2.5386666 23.7066661,2.24133328 C24.0799994,1.94266662 24.718666,1.74266662 25.6333327,1.64266663 L25.3333327,0 Z" id="path30"></path>
                </g>
                <g id="g32" transform="translate(99.144531, 62.443469) scale(1, -1) translate(-99.144531, -62.443469) translate(89.811198, 46.443470)" fill="#1791D0">
                    <path d="M15.9999996,5.3333332 C14.8239996,4.05733323 13.7679997,3.07866659 12.841333,2.39733327 C11.913333,1.71866662 10.9399997,1.2173333 9.92666642,0.891999978 C8.91733311,0.569333319 7.74799981,0.409333323 6.42133317,0.409333323 C5.07733321,0.409333323 3.96133323,0.65466665 3.07599992,1.14266664 C2.18799995,1.63066663 1.54133329,2.28666661 1.1453333,3.10666659 C0.747999981,3.92933324 0.547999986,4.85333321 0.547999986,5.88133319 C0.547999986,6.66133317 0.606666651,7.40399981 0.721333315,8.10933313 C0.839999979,8.81333311 1.07999997,9.97066642 1.4413333,11.5799997 L4.00533323,22.3786661 L0.645333317,22.3786661 L0.997333308,24.0213327 C2.02666662,24.0853327 2.82799993,24.2573327 3.41066658,24.5293327 C3.99066657,24.8053327 4.48399989,25.206666 4.89066654,25.738666 C5.29599987,26.2679993 5.68266652,26.998666 6.04666652,27.926666 C6.41199984,28.8573326 6.81733316,30.1159992 7.26799982,31.7093325 L13.2386663,31.7093325 L11.797333,25.4893327 L17.8413329,25.4893327 L17.1693329,22.3786661 L11.0733331,22.3786661 L8.31199979,11.0079997 C8.19466646,10.5093331 8.0879998,10.0213331 7.98666647,9.53866643 C7.88933314,9.05866644 7.80533314,8.59733312 7.74133314,8.15866646 C7.67199981,7.71999981 7.62799981,7.35466648 7.60266648,7.06266649 C7.57599981,6.77333316 7.56266648,6.5106665 7.56266648,6.27999984 C7.56266648,5.49999986 7.70399981,4.93333321 7.98666647,4.57733322 C8.27066646,4.21866656 8.68666645,4.04133323 9.2333331,4.04133323 C9.97866642,4.04133323 10.7466664,4.30533323 11.5319997,4.83733321 C12.3186664,5.3693332 13.1719997,6.18799985 14.0839996,7.29999982 L15.9999996,5.3333332 Z" id="path34"></path>
                </g>
                <g id="g36" transform="translate(119.242130, 65.434936) scale(1, -1) translate(-119.242130, -65.434936) translate(107.242131, 52.101603)" fill="#1791D0">
                    <path d="M7.9999998,14.6666663 C11.0519997,14.749333 13.3866663,15.333333 15.0026663,16.4213329 C16.6199996,17.5066662 17.4293329,19.0453329 17.4293329,21.0373328 C17.4293329,21.8839995 17.2346662,22.5253328 16.8439996,22.9653328 C16.4573329,23.4039994 15.9133329,23.6253327 15.213333,23.6253327 C13.673333,23.6253327 12.285333,22.8599994 11.0506664,21.3346661 C9.81066642,19.8079995 8.79333311,17.5839996 7.9999998,14.6666663 Z M21.1893328,6.30533318 C19.5119995,4.41599989 17.7066662,3.01466659 15.7746663,2.10266661 C13.841333,1.18666664 11.7479997,0.733333315 9.4933331,0.733333315 C7.55199981,0.733333315 5.89999985,1.07199997 4.54266655,1.75199996 C3.18133325,2.43333327 2.15599995,3.43999991 1.46666663,4.77599988 C0.77999998,6.11066651 0.434666656,7.70799981 0.434666656,9.56399976 C0.434666656,10.4266664 0.550666653,11.5306664 0.782666647,12.8746663 C1.09733331,14.6999996 1.57999996,16.3239996 2.22666661,17.7519996 C3.03866659,19.5093328 4.10133323,21.0199995 5.41199986,22.2799994 C6.72399983,23.5399994 8.26133313,24.5106661 10.0266664,25.1919994 C11.7959997,25.8719994 13.7319997,26.2119993 15.8386663,26.2119993 C18.3239995,26.2119993 20.2173328,25.758666 21.5093328,24.854666 C22.8053328,23.9506661 23.4533327,22.5693328 23.4533327,20.7119995 C23.4533327,19.4506662 23.1973328,18.3399995 22.6946661,17.3799996 C22.1866661,16.4159996 21.3439995,15.5439996 20.1666662,14.7666663 C18.9866662,13.9866663 17.3239996,13.3546663 15.1786663,12.8746663 C13.029333,12.3946664 10.4373331,12.1199997 7.40133315,12.053333 C7.18666649,11.0759997 7.07999982,10.0626664 7.07999982,9.01866644 C7.07999982,8.40399979 7.13866649,7.8199998 7.25199982,7.26399982 C7.37066648,6.70933317 7.57599981,6.21599984 7.87333314,5.78133319 C8.17333313,5.3533332 8.57333312,5.00799987 9.07333311,4.75066655 C9.56533309,4.49333322 10.2066664,4.36666656 10.9853331,4.36666656 C12.4466664,4.36666656 13.7639997,4.65999988 14.941333,5.25066654 C16.1173329,5.83599985 17.5053329,6.88533316 19.0959995,8.39466646 L21.1893328,6.30533318 Z" id="path38"></path>
                </g>
                <g id="g40" transform="translate(144.679730, 65.056136) scale(1, -1) translate(-144.679730, -65.056136) translate(132.013063, 51.722803)" fill="#1791D0">
                    <path d="M22.6666661,18.6666662 L18.2119995,18.6666662 C18.2119995,19.7786662 18.0919995,20.5493328 17.8519996,20.9799995 C17.6119996,21.4133328 17.2013329,21.6279995 16.6199996,21.6279995 C16.3559996,21.6279995 16.0773329,21.5733328 15.7866663,21.4653328 C15.4959996,21.3573328 15.1666663,21.1666661 14.7906663,20.8946661 C14.4159996,20.6199995 13.9679997,20.1746662 13.4466663,19.5626662 C12.9226663,18.9479995 12.489333,18.3533329 12.141333,17.7706662 C11.7919997,17.1893329 11.5026664,16.5813329 11.2693331,15.9426663 C11.0386664,15.3039996 10.8239997,14.4959996 10.6239997,13.5159997 L7.8879998,0.750666648 L0.746666648,0.750666648 L4.65066655,18.3173329 C5.01866654,19.9599995 5.19599987,21.1466661 5.19599987,21.8773328 C5.19599987,22.5733328 5.00533321,23.0479994 4.61466655,23.3066661 C4.22266656,23.5639994 3.61599991,23.7266661 2.78533326,23.7919994 L3.15866659,25.4359994 L9.99999975,25.7079994 L12.8106663,25.7079994 L10.9453331,19.9346662 L11.2453331,19.8359995 C12.637333,21.8079995 14.1079996,23.3039994 15.6479996,24.3159994 C17.1919996,25.3279994 18.8586662,25.8333327 20.6493328,25.8333327 C21.7466661,25.8333327 22.9079994,25.6759994 24.1333327,25.3613327 L22.6666661,18.6666662 Z" id="path42"></path>
                </g>
                <g id="g44" transform="translate(168.805996, 64.972136) scale(1, -1) translate(-168.805996, -64.972136) translate(155.472663, 52.305470)" fill="#1791D0">
                    <path d="M25.3333327,0 L15.0066663,0 L18.1159995,13.537333 C18.5679995,15.4599996 18.8386662,16.7866662 18.9373329,17.5173329 C19.0386662,18.2466662 19.0879995,18.8199995 19.0879995,19.2359995 C19.0879995,19.9813328 18.9306662,20.5359995 18.6159995,20.9026661 C18.3013329,21.2666661 17.8413329,21.4479995 17.2479996,21.4479995 C16.7146662,21.4479995 16.1373329,21.2506661 15.5039996,20.8519995 C14.873333,20.4546662 14.169333,19.8319995 13.3919997,18.9853329 C12.609333,18.1399995 11.9866664,17.2439996 11.5239997,16.2999996 C11.0599997,15.3519996 10.6879997,14.1759996 10.4026664,12.765333 L7.66399981,0 L0.526666653,0 L4.43333322,17.5666662 C4.51333322,17.9666662 4.62666655,18.5346662 4.76799988,19.2719995 C4.90933321,20.0106662 4.98133321,20.6279995 4.98133321,21.1266661 C4.98133321,21.8226661 4.78399988,22.2973328 4.39599989,22.5559994 C4.00533323,22.8133328 3.39599992,22.9759994 2.56533327,23.0413328 L2.93733326,24.6853327 L9.78266642,24.9573327 L12.3946664,24.9573327 L10.9746664,19.5826662 L11.2746664,19.4839995 C12.4186664,20.8933328 13.4786663,22.0013328 14.4599996,22.8053328 C15.4359996,23.6093327 16.4133329,24.1906661 17.3813329,24.5479994 C18.3546662,24.9039994 19.4293328,25.082666 20.6053328,25.082666 C22.3119994,25.082666 23.6559994,24.6053327 24.6373327,23.6519994 C25.6133327,22.6986661 26.1053327,21.3826661 26.1053327,19.7093328 C26.1053327,18.6279995 25.938666,17.3439996 25.6079994,15.8519996 L23.5653327,6.6426665 C23.4026661,5.88133319 23.2879994,5.29199987 23.2293328,4.87866654 C23.1733328,4.46399989 23.1439994,4.10666656 23.1439994,3.80666657 C23.1439994,3.06133326 23.3306661,2.5386666 23.7026661,2.24133328 C24.0759994,1.94266662 24.718666,1.74266662 25.6333327,1.64266663 L25.3333327,0 Z" id="path46"></path>
                </g>
                <g id="g48" transform="translate(192.980529, 65.397869) scale(1, -1) translate(-192.980529, -65.397869) translate(176.980529, 41.397870)" fill="#1791D0">
                    <path d="M10.6666664,33.3333325 L11.0146664,34.9746658 C11.6946664,35.0399991 12.2039997,35.1239991 12.5466664,35.2226658 C12.8866663,35.3239991 13.181333,35.4666658 13.4266663,35.6599991 C13.6786663,35.8479991 13.9106663,36.1613324 14.125333,36.5919991 C14.341333,37.0226657 14.573333,37.7026657 14.8226663,38.631999 C15.2519996,40.2413323 15.7933329,41.5653323 16.4413329,42.6026656 C17.0866662,43.6386656 17.9079996,44.5333322 18.9026662,45.2866655 C19.8986662,46.0439988 21.0759995,46.5986655 22.4373328,46.9546655 C23.7973327,47.3119988 25.314666,47.4933321 26.990666,47.4933321 C28.346666,47.4933321 29.5853326,47.3746655 30.6959992,47.1426655 L29.6759993,42.5639989 L27.2119993,42.5639989 C27.1959993,43.1119989 27.0959993,43.5453322 26.914666,43.8679989 C26.7333327,44.1946656 26.5053327,44.4173322 26.2333327,44.5426656 C25.9559994,44.6666655 25.6893327,44.7279989 25.422666,44.7279989 C24.842666,44.7279989 24.3546661,44.5466656 23.9546661,44.1826656 C23.5559994,43.8159989 23.2159994,43.2893323 22.9359994,42.6026656 C22.6519994,41.9133323 22.3666661,40.9373323 22.0879994,39.6773323 L21.3386661,36.4439991 L26.0933327,36.4439991 L25.394666,33.3333325 L20.6453328,33.3333325 L16.1426663,12.533333 C15.5599996,9.86133309 14.7426663,7.65466648 13.6919997,5.91333319 C12.6359997,4.17066656 11.2719997,2.85733326 9.59599976,1.96933328 C7.9199998,1.08133331 5.87333319,0.635999984 3.44933325,0.635999984 C2.67199993,0.635999984 1.88399995,0.745333315 1.08799997,0.962666643 L1.75599996,3.67199991 C2.22399994,3.54133324 2.7706666,3.47466658 3.40399991,3.47466658 C4.1479999,3.47466658 4.75866655,3.57999991 5.23066654,3.78666657 C5.70266652,3.99333323 6.13066651,4.34933322 6.5106665,4.85466655 C6.89466649,5.36266653 7.24799982,6.10266651 7.58266648,7.08266649 C7.9159998,8.06133313 8.27866646,9.4373331 8.67733312,11.2133331 L13.6506663,33.3333325 L10.6666664,33.3333325 Z" id="path50"></path>
                </g>
                <g id="g52" transform="translate(209.127595, 60.360136) scale(1, -1) translate(-209.127595, -60.360136) translate(201.794262, 43.026803)" fill="#1791D0">
                    <path d="M14.6666663,34.6666658 L13.373333,28.5719993 L6.92666649,28.5719993 L8.29866646,34.6666658 L14.6666663,34.6666658 Z M8.91733311,6.69733317 C8.73599978,5.86933319 8.61866645,5.25466654 8.57199979,4.85733321 C8.51999979,4.45999989 8.49733312,4.1279999 8.49733312,3.86133324 C8.49733312,3.14799992 8.68399978,2.63599993 9.05733311,2.32133328 C9.43066643,2.00533328 10.0733331,1.79733329 10.9826664,1.69733329 L10.7093331,0.0546666653 L0.358666658,0.0546666653 L4.24266656,17.4226662 C4.45733322,18.4186662 4.60399988,19.1933329 4.68933322,19.7493328 C4.77199988,20.3066662 4.81466655,20.7759995 4.81466655,21.1559995 C4.81466655,21.8013328 4.65999988,22.2639994 4.35333322,22.5373328 C4.04533323,22.8106661 3.40266658,22.9973328 2.42399994,23.0959994 L2.7986666,24.7399994 L10.0893331,25.0119994 L12.925333,25.0119994 L8.91733311,6.69733317 Z" id="path54"></path>
                </g>
                <g id="g56" transform="translate(227.109328, 65.338003) scale(1, -1) translate(-227.109328, -65.338003) translate(215.109328, 52.004670)" fill="#1791D0">
                    <path d="M5.3333332,7.9999998 C5.41599986,6.80533316 5.66133319,5.84933319 6.06666651,5.12666654 C6.47199984,4.40666656 6.97599983,3.9079999 7.57199981,3.63333324 C8.1719998,3.36133325 8.86399978,3.22399992 9.66133309,3.22399992 C10.9719997,3.22399992 11.985333,3.54266658 12.6999997,4.1799999 C13.4106663,4.81999988 13.7679997,5.72133319 13.7679997,6.88133316 C13.7679997,7.57733314 13.6506663,8.16666646 13.4199997,8.64799978 C13.1879997,9.12933311 12.8039997,9.59599976 12.2759997,10.0546664 C11.7439997,10.5093331 10.8813331,11.1026664 9.68933309,11.8319997 C8.02933313,12.8279997 6.8226665,13.8599997 6.06666651,14.9306663 C5.31066653,15.9986663 4.93466654,17.1999996 4.93466654,18.5253329 C4.93466654,20.9639995 5.84666652,22.8359994 7.67199981,24.1479994 C9.49466643,25.4599994 12.053333,26.114666 15.3373329,26.114666 C16.6133329,26.114666 17.9866662,26.010666 19.4546662,25.802666 C20.9199995,25.5959994 22.2599994,25.3199994 23.4706661,24.9719994 L22.1773328,19.0239995 L19.0186662,19.0239995 C18.8679995,20.5666662 18.4746662,21.7026661 17.8359996,22.4319994 C17.1973329,23.1639994 16.2813329,23.5279994 15.0839996,23.5279994 C13.9746663,23.5279994 13.0839997,23.2413328 12.4146664,22.6693328 C11.7399997,22.0959994 11.4066664,21.3213328 11.4066664,20.3399995 C11.4066664,19.7279995 11.5319997,19.1893329 11.7879997,18.7253329 C12.045333,18.2613329 12.4586664,17.7946662 13.021333,17.3319996 C13.5866663,16.8653329 14.4226663,16.3026663 15.5359996,15.6386663 C17.2919996,14.5946663 18.5533329,13.5159997 19.3159995,12.405333 C20.0813328,11.2933331 20.4613328,9.99199975 20.4613328,8.49999979 C20.4613328,6.80533316 20.0106662,5.36266653 19.1066662,4.17066656 C18.2026662,2.97466659 16.9639996,2.08533328 15.3986663,1.50666663 C13.8319997,0.92533331 12.0426664,0.637333317 10.0359997,0.637333317 C8.26133313,0.637333317 6.60933317,0.743999981 5.08666654,0.958666643 C3.55866658,1.17466664 2.12399995,1.46399996 0.77999998,1.82933329 L2.17599995,7.9999998 L5.3333332,7.9999998 Z" id="path58"></path>
                </g>
                <g id="g60" transform="translate(252.281194, 59.877736) scale(1, -1) translate(-252.281194, -59.877736) translate(238.947861, 41.211070)" fill="#1791D0">
                    <path d="M11.9999997,21.3333328 L12.3199997,21.2373328 C13.649333,22.8613328 14.9986663,24.0599994 16.3666663,24.830666 C17.7359996,25.602666 19.2653329,25.9879994 20.9586661,25.9879994 C22.6493328,25.9879994 23.9839994,25.510666 24.962666,24.5573327 C25.942666,23.6053327 26.430666,22.2879994 26.430666,20.6146662 C26.430666,19.5333328 26.2639993,18.2493329 25.9333327,16.7573329 L23.8933327,7.54933314 C23.7279994,6.7866665 23.6159994,6.19733318 23.5559994,5.78399986 C23.4986661,5.3693332 23.4706661,5.01199987 23.4706661,4.71333322 C23.4706661,3.96666657 23.6559994,3.44399991 24.0279994,3.14666659 C24.4026661,2.84799993 25.046666,2.64799993 25.958666,2.54799994 L25.658666,0.905333311 L15.3346663,0.905333311 L18.4453329,14.4426663 C18.8933329,16.3653329 19.1666662,17.6933329 19.2653329,18.4226662 C19.3653328,19.1519995 19.4146662,19.7253328 19.4146662,20.1413328 C19.4146662,20.8879995 19.2559995,21.4426661 18.9413329,21.8079995 C18.6266662,22.1719994 18.1693329,22.3546661 17.5733329,22.3546661 C17.0426662,22.3546661 16.4599996,22.1559994 15.8293329,21.7573328 C15.1999996,21.3599995 14.4946663,20.7373328 13.7159997,19.8906662 C12.9346663,19.0453329 12.3146664,18.1493329 11.8506664,17.2053329 C11.385333,16.2573329 11.0133331,15.0826663 10.7293331,13.6706663 L7.9919998,0.905333311 L0.851999979,0.905333311 L7.14666649,29.0226659 C7.51199981,30.6479992 7.69599981,31.8359992 7.69599981,32.5826659 C7.69599981,32.9439992 7.65733314,33.2319992 7.58266648,33.4399992 C7.51066648,33.6466658 7.39733315,33.8159992 7.24533315,33.9506658 C7.09733316,34.0826658 6.89733316,34.1866658 6.64933317,34.2613325 C6.39999984,34.3346658 5.91333319,34.4226658 5.1813332,34.5213325 L5.57999986,36.1399991 L13.0199997,36.5373324 L15.8293329,36.5373324 L11.9999997,21.3333328 Z" id="path62"></path>
                </g>
                <g id="g64" transform="translate(96.305998, 108.668001) scale(1, -1) translate(-96.305998, -108.668001) translate(78.972665, 91.334669)" fill="#163278">
                    <path d="M22.6666661,10.6666664 L22.6666661,2.95199993 L28.630666,2.95199993 L28.630666,9.17599977 C28.630666,9.99466642 27.998666,10.6666664 27.178666,10.6666664 L22.6666661,10.6666664 Z M16.5559996,17.6719996 L32.2426659,17.6719996 L32.2426659,15.1386663 L16.5559996,15.1386663 L16.5559996,17.6719996 Z M20.0199995,26.2813327 L19.0906662,23.8213327 L33.0999992,23.8213327 L33.0999992,21.2879995 L15.3626663,21.2879995 L17.6373329,27.174666 L20.0199995,26.2813327 Z M14.2079996,2.95199993 L20.1333328,2.95199993 L20.1333328,10.6666664 L14.2079996,10.6666664 L14.2079996,2.95199993 Z M10.2573331,26.7279993 L12.7919997,26.7279993 L12.7919997,14.1306663 L10.2573331,14.1306663 L10.2573331,26.7279993 Z M5.70933319,2.95199993 L11.673333,2.95199993 L11.673333,10.6666664 L7.16399982,10.6666664 C6.34399984,10.6666664 5.70933319,9.99466642 5.70933319,9.17599977 L5.70933319,2.95199993 Z M3.62266658,25.570666 L6.15733318,25.570666 L6.15733318,15.061333 L3.62266658,15.061333 L3.62266658,25.570666 Z M0.198666662,2.95199993 L3.17733325,2.95199993 L3.17733325,9.17599977 C3.17733325,11.373333 4.96799988,13.1986663 7.16399982,13.1986663 L27.178666,13.1986663 C29.3719993,13.1986663 31.1613326,11.373333 31.1613326,9.17599977 L31.1613326,2.95199993 L34.1426658,2.95199993 L34.1426658,0.417333323 L0.198666662,0.417333323 L0.198666662,2.95199993 Z M27.102666,34.4039991 L27.102666,32.0559992 L34.0333325,32.0559992 L34.0333325,29.5239993 L27.102666,29.5239993 L27.102666,27.2119993 L24.5679994,27.2119993 L24.5679994,29.5239993 L9.66133309,29.5239993 L9.66133309,27.2119993 L7.09066649,27.2119993 L7.09066649,29.5239993 L0.198666662,29.5239993 L0.198666662,32.0559992 L7.09066649,32.0559992 L7.09066649,34.4039991 L9.66133309,34.4039991 L9.66133309,32.0559992 L24.5679994,32.0559992 L24.5679994,34.4039991 L27.102666,34.4039991 Z" id="path66"></path>
                </g>
                <g id="g68" transform="translate(133.493463, 108.453868) scale(1, -1) translate(-133.493463, -108.453868) translate(115.493464, 91.120535)" fill="#163278">
                    <path d="M15.9999996,33.3333325 L34.9333325,33.3333325 L34.9333325,30.7986659 L29.0439993,30.7986659 L29.0439993,4.78666655 C29.0439993,2.21733328 26.9199993,0.0946666643 24.3493327,0.0946666643 L20.0279995,0.0946666643 L20.0279995,2.62533327 L24.3493327,2.62533327 C25.5413327,2.62533327 26.5093327,3.59466658 26.5093327,4.78666655 L26.5093327,30.7986659 L15.9999996,30.7986659 L15.9999996,33.3333325 Z M13.8399997,17.0093329 L11.3053331,17.0093329 L11.3053331,30.8373326 L13.8399997,30.8373326 L13.8399997,17.0093329 Z M4.1919999,15.8933329 L1.65733329,15.8933329 L1.65733329,30.3893326 L4.1919999,30.3893326 L4.1919999,15.8933329 Z M12.7239997,2.51333327 L8.32799979,12.4639997 C7.35466648,7.91733314 5.60666653,4.00533323 3.07199992,0.0159999996 L0.950666643,1.39599997 C4.97199988,7.69466647 6.79999983,13.805333 6.75999983,23.0853328 L6.75999983,33.6679992 L9.29466643,33.6679992 L9.29466643,23.0853328 C9.29466643,20.9586661 9.18266644,19.0239995 9.03466644,17.1986662 L15.073333,3.55733324 L12.7239997,2.51333327 Z" id="path70"></path>
                </g>
                <g id="g72" transform="translate(171.016929, 108.673201) scale(1, -1) translate(-171.016929, -108.673201) translate(154.516929, 90.673201)" fill="#163278">
                    <path d="M27.9999993,10.6666664 L27.9999993,14.7279996 L17.4173329,14.7279996 L17.4173329,8.50399979 L25.838666,8.50399979 C27.070666,8.50399979 27.9999993,9.47466643 27.9999993,10.6666664 Z M17.4173329,23.6733327 L17.4173329,17.2613329 L27.9999993,17.2613329 L27.9999993,21.5119995 C27.9999993,22.7039994 27.070666,23.6733327 25.838666,23.6733327 L17.4173329,23.6733327 Z M14.885333,8.50399979 L14.885333,14.7279996 L4.30266656,14.7279996 L4.30266656,10.6666664 C4.30266656,9.47466643 5.23199987,8.50399979 6.46399984,8.50399979 L14.885333,8.50399979 Z M4.30266656,17.2613329 L14.885333,17.2613329 L14.885333,23.6733327 L6.46399984,23.6733327 C5.23199987,23.6733327 4.30266656,22.7039994 4.30266656,21.5119995 L4.30266656,17.2613329 Z M6.46399984,5.97199985 C3.89066657,5.97199985 1.76799996,8.09466646 1.76799996,10.6666664 L1.76799996,21.5119995 C1.76799996,24.0813327 3.89066657,26.206666 6.46399984,26.206666 L23.3813327,26.206666 L25.0239994,29.1893326 L2.77333326,29.1893326 L5.5293332,35.0399991 L7.8399998,33.9586658 L6.7986665,31.7226659 L29.2666659,31.7226659 L26.2133327,26.1679993 C28.634666,25.982666 30.5346659,23.9346661 30.5346659,21.5119995 L30.5346659,10.6666664 C30.5346659,8.09466646 28.414666,5.97199985 25.838666,5.97199985 L6.46399984,5.97199985 Z M0.0906666644,3.51199991 L32.2493325,3.51199991 L32.2493325,0.981333309 L0.0906666644,0.981333309 L0.0906666644,3.51199991 Z" id="path74"></path>
                </g>
                <g id="g76" transform="translate(327.779992, 71.125069) scale(1, -1) translate(-327.779992, -71.125069) translate(295.113326, 33.125070)" fill="#1791D0">
                    <path d="M3.9999999,45.3333322 L4.87599988,46.2066655 L30.0706659,71.3973315 L30.5653326,71.8959982 C32.6106659,73.8199982 35.3613324,75.0093315 38.3933324,75.0093315 C41.4093323,75.0093315 44.1386656,73.8346648 46.1813322,71.9346649 L46.7586655,71.3546649 L64.3866651,53.729332 L48.3506655,37.6933324 L64.3799984,21.6666661 L46.5733322,3.86133324 L46.3826655,3.67199991 C44.3253322,1.65733329 41.503999,0.41199999 38.3933324,0.41199999 C35.2599991,0.41199999 32.4279992,1.67199996 30.3639992,3.70799991 L30.2559992,3.81733324 L4.86799988,29.1986659 L4.0079999,30.0666659 C2.18799995,32.0893325 1.06799997,34.7639991 1.06799997,37.7026657 C1.06799997,40.6346657 2.18399995,43.3053323 3.9999999,45.3333322" id="path78"></path>
                </g>
                <g id="g80" transform="translate(359.499991, 72.061869) scale(1, -1) translate(-359.499991, -72.061869) translate(342.166658, 55.395203)" fill="#144397">
                    <polygon id="path82" points="17.3333329 33.3333325 33.3599992 17.3053329 17.3266662 1.27066663 1.2973333 17.2973329"></polygon>
                </g>
                <g id="g84" transform="translate(464.600255, 10.844537) scale(1, -1) translate(-464.600255, -10.844537) translate(453.933589, 0.177871)" fill="#163278">
                    <path d="M11.9999997,1.3333333 C11.3639997,0.697333316 10.3359997,0.697333316 9.70133309,1.3333333 L1.14266664,9.88933309 C0.506666654,10.5253331 0.506666654,11.5586664 1.14266664,12.193333 L9.70133309,20.7533328 C10.3359997,21.3866661 11.3639997,21.3866661 11.9999997,20.7533328 L20.5639995,12.193333 C21.1946661,11.5586664 21.1946661,10.5253331 20.5639995,9.88933309 L11.9999997,1.3333333 Z" id="path86"></path>
                </g>
                <polygon id="path88" fill="#163278" transform="translate(247.025994, 107.934002) scale(1, -1) translate(-247.025994, -107.934002) " points="264.863993 105.892002 229.187994 105.892002 229.187994 109.976001 264.863993 109.976001"></polygon>
                <polygon id="path90" fill="#163278" transform="translate(22.436666, 107.934002) scale(1, -1) translate(-22.436666, -107.934002) " points="40.275999 105.892002 4.59733322 105.892002 4.59733322 109.976001 40.275999 109.976001"></polygon>
                <g id="g92" transform="translate(421.290391, 71.761867) scale(1, -1) translate(-421.290391, -71.761867) translate(359.290391, 5.761867)" fill="#163278">
                    <path d="M106.999997,61.3333318 C104.233331,61.3333318 101.985331,63.5799984 101.985331,66.346665 C101.985331,69.1173316 104.233331,71.3613315 106.999997,71.3613315 C109.767997,71.3613315 112.014664,69.1173316 112.014664,66.346665 C112.014664,63.5799984 109.767997,61.3333318 106.999997,61.3333318 M118.139997,79.707998 L116.602664,81.247998 L72.4386648,125.411997 L71.5666649,126.28133 C67.9839983,129.658663 63.1626651,131.739997 57.8426652,131.739997 C52.5626653,131.739997 47.7706654,129.683997 44.1919989,126.34933 L43.1826656,125.335997 L0.209333303,82.3666646 L16.2359996,66.338665 L0.202666637,50.3039987 L43.5039989,7.00133316 L43.8306655,6.6706665 C47.4506655,3.13733325 52.385332,0.95333331 57.8426652,0.95333331 C63.3333317,0.95333331 68.3013316,3.16533325 71.9213315,6.73599983 L72.1159982,6.92799983 L116.61333,51.4266654 L118.12933,52.9439987 C121.323997,56.4973319 123.28133,61.1786651 123.28133,66.330665 C123.28133,71.4759982 121.327997,76.1586648 118.139997,79.707998" id="path94"></path>
                </g>
            </g>
        </g>
    </g>
</svg>